PathFileType  4	(X/Y/Z) C:\Users\antoi\Documents\MyRepositories\mobilecap\ResultsAnalysis
DataRate	CameraRate	NumFrames	NumMarkers	Units	OrigDataRate	OrigDataStartFrame	OrigNumFrames
100.0	100.0	6	51	mm	100.0	124	141
Frame#	Time	r_knee			r_shank_antsup			r_ankle			r_calc			r_5meta			r_toe			L_knee			L_shank_antsup			L_ankle			L_calc			L_5meta			L_toe			r_sh2			r_sh3			r_sh4			L_sh2			L_sh3			r_thigh1			r_thigh2			r_thigh3			r_thigh4			r_thigh5			L_thigh1			L_thigh2			L_thigh3			L_thigh4			r.ASIS			r.PSIS			L.ASIS			L.PSIS			C7			R_Shoulder			L_Shoulder			R_Sternum			L_Sternum			R_humerus			R_elbow_med			R_elbow_lat			R_forearm			R_wrist_radius			R_wrist_ulna			L_humerus			L_elbow_med			L_elbow_lat			L_forearm			L_wrist_radius			L_wrist_ulna			R_HJC			L_HJC			R_HJC_reg			L_HJC_reg			
		X1	Y1	Z1	X2	Y2	Z2	X3	Y3	Z3	X4	Y4	Z4	X5	Y5	Z5	X6	Y6	Z6	X7	Y7	Z7	X8	Y8	Z8	X9	Y9	Z9	X10	Y10	Z10	X11	Y11	Z11	X12	Y12	Z12	X13	Y13	Z13	X14	Y14	Z14	X15	Y15	Z15	X16	Y16	Z16	X17	Y17	Z17	X18	Y18	Z18	X19	Y19	Z19	X20	Y20	Z20	X21	Y21	Z21	X22	Y22	Z22	X23	Y23	Z23	X24	Y24	Z24	X25	Y25	Z25	X26	Y26	Z26	X27	Y27	Z27	X28	Y28	Z28	X29	Y29	Z29	X30	Y30	Z30	X31	Y31	Z31	X32	Y32	Z32	X33	Y33	Z33	X34	Y34	Z34	X35	Y35	Z35	X36	Y36	Z36	X37	Y37	Z37	X38	Y38	Z38	X39	Y39	Z39	X40	Y40	Z40	X41	Y41	Z41	X42	Y42	Z42	X43	Y43	Z43	X44	Y44	Z44	X45	Y45	Z45	X46	Y46	Z46	X47	Y47	Z47	X48	Y48	Z48	X49	Y49	Z49	X50	Y50	Z50	X51	Y51	Z51	

124	1.23000000	1389.99349	490.75825	-135.47930	1453.74686	410.24833	-149.30515	1457.59822	88.86722	-164.05360	1401.93327	53.72265	-216.75303	1580.95049	54.04566	-127.52878	1609.97603	89.31180	-181.47837	1110.68694	475.95539	-404.84514	1090.99018	379.81866	-389.93414	838.04787	158.36656	-383.72165	752.45803	159.46614	-334.65656	890.31106	46.22015	-418.07031	943.77875	49.20316	-361.67563	1474.35337	299.07541	-155.95772	1393.21523	395.30289	-105.62104	1407.50231	281.37899	-108.31930	1038.63779	438.80998	-432.92531	959.62199	347.26280	-437.58472	1339.61798	764.38106	-98.02523	1383.13717	664.21581	-119.10836	1343.57823	615.88427	-89.18667	1238.76285	715.52720	-82.11754	1288.22565	613.92074	-105.47259	1266.62284	690.91434	-421.13639	1237.41695	555.87939	-395.94667	1165.86303	705.05326	-460.04229	1134.07299	579.74635	-423.62158	1316.93404	935.43487	-143.98739	1112.53786	956.36538	-237.13733	1331.44397	910.00444	-402.93744	1124.20544	960.30456	-330.23153	1161.14936	1414.98115	-271.45030	1217.22622	1357.26626	-101.18487	1265.84688	1393.81218	-417.25151	1283.75801	1333.92130	-239.53248	1287.52243	1340.12850	-284.84673	1242.19741	1223.37147	-53.54984	1160.22395	1026.93216	-105.99738	1152.01778	1040.11613	-40.07758	1195.61491	976.00066	-0.79500	1251.78310	812.40972	-6.49715	1206.61971	813.00201	16.57604	1313.56865	1260.86106	-475.58349	1251.98139	1054.29159	-467.36571	1289.54648	1075.05544	-534.42826	1351.99374	1030.10472	-528.07821	1430.58266	874.29928	-493.51223	1408.63987	870.46538	-538.26742	1234.30396	845.08489	-168.15069	1244.39398	831.09650	-356.92527	1246.20974	835.14494	-192.85399	1267.56450	842.39793	-363.35254	
125	1.24000000	1404.22798	491.83369	-135.09372	1466.07136	409.42647	-148.87846	1460.62173	88.56254	-164.16248	1403.42122	54.75819	-216.65381	1583.00554	50.12134	-127.87630	1613.08338	84.08769	-182.11579	1131.12800	473.18684	-404.06903	1109.15902	377.06613	-389.65289	848.20446	164.98638	-384.00512	763.35843	171.24889	-334.02487	892.84081	48.89778	-417.61793	946.40992	48.66217	-361.52832	1483.85153	297.83753	-155.82830	1405.44742	395.85849	-104.84367	1416.99293	281.68412	-107.62958	1058.74798	437.88718	-432.08034	976.29639	349.35802	-436.91592	1354.26653	766.29397	-97.72832	1397.68937	666.10874	-119.03266	1358.83157	617.94970	-88.56555	1253.65789	717.32019	-80.51171	1303.25790	615.53673	-104.10924	1283.89598	690.16223	-419.70587	1257.02506	554.68079	-394.94607	1182.90722	702.93111	-458.05132	1152.99768	577.12479	-422.19584	1331.86140	936.65759	-142.92882	1127.32725	956.94026	-236.45663	1346.77624	909.60449	-400.97477	1139.53919	959.50704	-330.09206	1173.36470	1414.62132	-268.32300	1229.28477	1356.26630	-98.19842	1278.08287	1395.04780	-414.25213	1296.34211	1334.39563	-236.49578	1300.33577	1340.89389	-281.76952	1254.96265	1222.21602	-51.47746	1174.28539	1025.74613	-105.62501	1165.58811	1038.50672	-39.63757	1208.67900	974.23436	-0.29850	1264.44629	810.47579	-6.37760	1219.05452	811.05619	16.29245	1325.41324	1262.15735	-473.60969	1263.55236	1055.70855	-464.91897	1300.57785	1076.38608	-532.41413	1362.88495	1031.21922	-526.77915	1441.18651	874.94364	-493.49535	1418.79467	871.33260	-538.05988	1249.25359	846.12246	-166.41941	1259.94700	830.69477	-355.04089	1260.68427	837.21258	-190.71359	1282.83836	841.91929	-360.71186	
126	1.25000000	1418.65113	493.15522	-134.78012	1478.08579	408.71063	-148.45459	1462.81691	88.46965	-164.27737	1404.45170	55.42420	-216.54678	1584.34683	47.32428	-127.86974	1615.26060	80.15089	-182.37003	1153.28002	470.10408	-403.45041	1128.85503	374.16313	-389.59879	860.07786	172.16523	-384.16469	776.64596	184.18296	-333.22433	895.91604	52.43644	-417.07048	949.56752	48.55031	-361.47136	1492.75660	296.72127	-155.69648	1417.45147	396.64503	-103.96773	1425.96811	282.25118	-106.80872	1080.55796	436.75222	-431.32896	994.64767	351.55124	-436.26659	1368.91718	768.65593	-97.62054	1412.41706	668.54950	-119.15972	1374.63363	620.52769	-87.85309	1268.87258	719.33097	-78.46477	1318.68912	617.42472	-102.40582	1301.77733	689.73341	-418.16547	1277.80583	553.69672	-393.96292	1200.49146	700.65294	-456.02028	1173.15069	574.18577	-420.86274	1346.56125	938.23008	-141.83741	1141.87230	957.83543	-235.93122	1361.96583	909.45775	-398.76384	1154.65682	958.88486	-330.00826	1185.59737	1414.58232	-265.36062	1241.29185	1355.69831	-95.39982	1290.34458	1396.43182	-411.40069	1308.81776	1335.15883	-233.57048	1313.12627	1341.93396	-278.78227	1267.81040	1221.54225	-49.49091	1188.57361	1024.95615	-105.17683	1179.39552	1037.32525	-39.13743	1222.03785	972.93314	0.23356	1277.35867	808.97765	-6.22437	1231.76441	809.57987	16.09943	1337.12101	1263.58104	-471.92324	1274.88540	1057.26901	-462.26710	1311.33678	1077.75171	-530.31178	1373.48165	1032.38229	-525.46623	1451.49675	875.62606	-493.47633	1428.62667	872.25266	-537.82720	1263.92530	847.51858	-164.60439	1275.36515	830.52711	-353.04012	1274.90875	839.78821	-188.44126	1297.90083	841.72156	-357.77283	
127	1.26000000	1432.85430	494.52195	-134.53383	1489.62615	408.03792	-148.17198	1464.32598	88.52674	-164.46793	1405.09087	55.80682	-216.46160	1585.15641	45.47948	-127.67462	1616.70166	77.30279	-182.42839	1177.05427	466.79033	-402.98935	1150.08487	371.23524	-389.75005	873.84944	179.84977	-384.19174	792.60554	198.12292	-332.24146	899.72077	57.00559	-416.43826	953.37070	49.04823	-361.55023	1501.04499	295.69335	-155.69085	1429.09966	397.52892	-103.10456	1434.41247	282.95947	-105.98431	1103.97110	435.54302	-430.65468	1014.65739	353.87206	-435.60709	1383.48627	771.16639	-97.59442	1427.07948	671.15415	-119.34347	1390.50442	623.27950	-87.02426	1284.19239	721.48139	-76.10508	1334.11103	619.46783	-100.43536	1320.20387	689.61060	-416.55106	1299.64319	552.95039	-392.99893	1218.56830	698.24571	-454.00660	1194.48006	570.98620	-419.64357	1361.00822	940.06289	-140.64228	1156.12823	958.98446	-235.53753	1376.93892	909.56152	-396.32788	1169.49026	958.44072	-329.93231	1197.82077	1414.84289	-262.59866	1253.23636	1355.56001	-92.80428	1302.63797	1397.92938	-408.71310	1321.21357	1336.19216	-230.79474	1325.87771	1343.20778	-275.93387	1280.70981	1221.35519	-47.58432	1203.03822	1024.57795	-104.66391	1193.40665	1036.58518	-38.57719	1235.67214	972.10308	0.78745	1290.52247	807.93073	-6.05007	1244.76527	808.59436	16.00180	1348.73619	1265.09925	-470.50774	1285.98306	1058.97027	-459.36355	1321.81593	1079.13065	-528.13541	1383.78468	1033.56268	-524.17882	1461.51427	876.32660	-493.45041	1438.12821	873.20508	-537.56268	1278.27006	849.19044	-162.71360	1290.58209	830.58337	-350.93739	1288.85872	842.72892	-186.03616	1312.70045	841.79182	-354.58782	
128	1.27000000	1446.38268	495.70615	-134.30959	1500.50391	407.31235	-148.07232	1465.32705	88.66039	-164.76440	1405.43706	56.00219	-216.40655	1585.61565	44.35556	-127.42496	1617.61385	75.29783	-182.43574	1202.23963	463.38370	-402.65790	1172.77574	368.43316	-390.04157	889.63112	187.93022	-384.07644	811.36756	212.75560	-331.04850	904.53272	62.70594	-415.73491	958.03409	50.32609	-361.79106	1508.69711	294.68597	-155.84600	1440.19725	398.33237	-102.32628	1442.28249	283.64498	-105.25502	1128.80359	434.42945	-430.01461	1036.23317	356.33917	-434.89160	1397.86057	773.50210	-97.52046	1441.38646	673.50886	-119.42754	1405.88376	625.83483	-86.07602	1299.32012	723.67250	-73.61443	1349.07527	621.52723	-98.31607	1339.07344	689.76580	-414.91785	1322.36709	552.48130	-392.04537	1237.08265	695.76155	-452.08559	1216.84741	567.63830	-418.56140	1375.19055	942.04066	-139.28659	1170.09589	960.30373	-235.20608	1391.62165	909.92361	-393.72354	1183.98203	958.17681	-329.80726	1210.02155	1415.36106	-260.04386	1265.13050	1355.83815	-90.41404	1314.94830	1399.50062	-406.20604	1333.56474	1337.46980	-228.20286	1338.57085	1344.66940	-273.27092	1293.63585	1221.64478	-45.74931	1217.61593	1024.62329	-104.09348	1207.58301	1036.29123	-37.95366	1249.55717	971.73938	1.35223	1303.94483	807.34974	-5.87128	1258.06990	808.10760	15.99698	1360.28735	1266.66731	-469.30421	1296.89433	1060.79214	-456.22222	1332.02929	1080.50527	-525.90526	1393.81380	1034.72838	-522.94637	1471.24708	877.02076	-493.41283	1447.29678	874.15746	-537.25796	1292.27609	851.02672	-160.76991	1305.53852	830.85716	-348.76929	1302.55432	845.86742	-183.49129	1327.16377	842.11524	-351.22591	
129	1.28000000	1458.84816	496.50869	-134.04522	1510.52954	406.42852	-148.11196	1465.98415	88.80320	-165.15670	1405.59254	56.08885	-216.37882	1585.86399	43.72959	-127.20067	1618.17563	73.91039	-182.47242	1228.52555	460.06312	-402.40425	1196.76500	365.91171	-390.36862	907.43300	196.24106	-383.79854	832.82861	227.60635	-329.62316	910.76198	69.52216	-414.98814	963.91011	52.50508	-362.18795	1515.68347	293.61459	-156.11308	1450.51372	398.88482	-101.66593	1449.49706	284.14762	-104.68085	1154.80659	433.57501	-429.34568	1059.22127	358.95434	-434.07236	1411.91452	775.38660	-97.26083	1455.07439	675.27244	-119.27645	1420.26553	627.87157	-85.03621	1313.93399	725.78923	-71.19682	1363.18398	623.45321	-96.20298	1358.24820	690.17667	-413.33037	1345.76854	552.34919	-391.09290	1255.96515	693.27105	-450.33805	1240.04455	564.29186	-417.63951	1389.10197	944.03474	-137.74433	1183.80208	961.70393	-234.83989	1405.94460	910.55615	-391.04109	1198.08748	958.08999	-329.57558	1222.19841	1416.09515	-257.67904	1277.01094	1356.51040	-88.22285	1327.23931	1401.10581	-403.89908	1345.90366	1338.95870	-225.82336	1351.18654	1346.27233	-270.83317	1306.57880	1222.38522	-43.98230	1232.23773	1025.09382	-103.46565	1221.88369	1036.43768	-37.25966	1263.66825	971.82914	1.92365	1317.63392	807.24423	-5.70531	1271.68585	808.11035	16.07804	1371.77685	1268.23523	-468.23076	1307.71049	1062.69198	-452.92282	1342.00959	1081.85906	-523.64509	1403.60175	1035.84926	-521.78506	1480.71721	877.68413	-493.36230	1456.14379	875.06991	-536.90584	1305.96018	852.90039	-158.81349	1320.18073	831.34278	-346.59550	1316.03486	849.03557	-180.81249	1341.20883	842.67123	-347.77765	
